<svg width="16" height="16" viewBox="0 0 16 16" fill="none" xmlns="http://www.w3.org/2000/svg">
<path fill-rule="evenodd" clip-rule="evenodd" d="M9.00004 3.33337C9.00004 2.78109 8.55233 2.33337 8.00004 2.33337C7.44776 2.33337 7.00004 2.78109 7.00004 3.33337V7.00004H3.33337C2.78109 7.00004 2.33337 7.44776 2.33337 8.00004C2.33337 8.55233 2.78109 9.00004 3.33337 9.00004H7.00004V12.6667C7.00004 13.219 7.44776 13.6667 8.00004 13.6667C8.55233 13.6667 9.00004 13.219 9.00004 12.6667V9.00004H12.6667C13.219 9.00004 13.6667 8.55233 13.6667 8.00004C13.6667 7.44776 13.219 7.00004 12.6667 7.00004H9.00004V3.33337Z" fill="white" fill-opacity="0.56"/>
</svg>
