<svg width="14" height="16" viewBox="0 0 14 16" fill="none" xmlns="http://www.w3.org/2000/svg">
<path fill-rule="evenodd" clip-rule="evenodd" d="M10.3333 1.33341C10.3333 0.965225 10.0348 0.666748 9.66665 0.666748C9.29846 0.666748 8.99998 0.965225 8.99998 1.33341V2.00008H4.99998V1.33341C4.99998 0.965225 4.7015 0.666748 4.33331 0.666748C3.96512 0.666748 3.66665 0.965225 3.66665 1.33341V2.00008H2.33331C1.22874 2.00008 0.333313 2.89551 0.333313 4.00008V6.66675V13.3334C0.333313 14.438 1.22874 15.3334 2.33331 15.3334H11.6666C12.7712 15.3334 13.6666 14.438 13.6666 13.3334V6.66675V4.00008C13.6666 2.89551 12.7712 2.00008 11.6666 2.00008H10.3333V1.33341ZM12.3333 6.00008V4.00008C12.3333 3.63189 12.0348 3.33341 11.6666 3.33341H10.3333V4.00008C10.3333 4.36827 10.0348 4.66675 9.66665 4.66675C9.29846 4.66675 8.99998 4.36827 8.99998 4.00008V3.33341H4.99998V4.00008C4.99998 4.36827 4.7015 4.66675 4.33331 4.66675C3.96512 4.66675 3.66665 4.36827 3.66665 4.00008V3.33341H2.33331C1.96512 3.33341 1.66665 3.63189 1.66665 4.00008V6.00008H12.3333ZM1.66665 7.33341H12.3333V13.3334C12.3333 13.7016 12.0348 14.0001 11.6666 14.0001H2.33331C1.96512 14.0001 1.66665 13.7016 1.66665 13.3334V7.33341Z" fill="#B3B5B7"/>
</svg>
