<svg width="8" height="10" viewBox="0 0 8 10" fill="none" xmlns="http://www.w3.org/2000/svg">
<path fill-rule="evenodd" clip-rule="evenodd" d="M1.13807 0.528575C0.877722 0.268226 0.455612 0.268226 0.195262 0.528575C-0.0650874 0.788925 -0.0650874 1.21103 0.195262 1.47138L3.5286 4.80472C3.78894 5.06507 4.21106 5.06507 4.4714 4.80472L7.80474 1.47138C8.06509 1.21103 8.06509 0.788925 7.80474 0.528575C7.54439 0.268226 7.12228 0.268226 6.86193 0.528575L4 3.3905L1.13807 0.528575ZM1.13807 5.19524C0.877722 4.93489 0.455612 4.93489 0.195262 5.19524C-0.0650874 5.45559 -0.0650874 5.8777 0.195262 6.13805L3.5286 9.47138C3.78894 9.73173 4.21106 9.73173 4.4714 9.47138L7.80474 6.13805C8.06509 5.8777 8.06509 5.45559 7.80474 5.19524C7.54439 4.93489 7.12228 4.93489 6.86193 5.19524L4 8.05717L1.13807 5.19524Z" fill="#B3B5B7"/>
</svg>
