<svg width="16" height="16" viewBox="0 0 16 16" fill="none" xmlns="http://www.w3.org/2000/svg">
<path fill-rule="evenodd" clip-rule="evenodd" d="M4 0.666687C3.46957 0.666687 2.96086 0.877401 2.58579 1.25247C2.21071 1.62755 2 2.13625 2 2.66669V13.3334C2 13.8638 2.21071 14.3725 2.58579 14.7476C2.96086 15.1226 3.46957 15.3334 4 15.3334H12C12.5304 15.3334 13.0391 15.1226 13.4142 14.7476C13.7893 14.3725 14 13.8638 14 13.3334V6.052C14 6.04335 13.9998 6.03473 13.9995 6.02612C13.9998 6.01746 14 6.00876 14 6.00002C14 5.73706 13.8478 5.50966 13.6266 5.40115L9.22244 0.965043C9.10304 0.785223 8.8987 0.666687 8.66667 0.666687C8.66365 0.666687 8.66064 0.666707 8.65763 0.666747C8.65465 0.666707 8.65167 0.666687 8.64868 0.666687H4ZM8 2.00002H4C3.82319 2.00002 3.65362 2.07026 3.5286 2.19528C3.40357 2.32031 3.33333 2.48988 3.33333 2.66669V13.3334C3.33333 13.5102 3.40357 13.6797 3.5286 13.8048C3.65362 13.9298 3.82319 14 4 14H12C12.1768 14 12.3464 13.9298 12.4714 13.8048C12.5964 13.6797 12.6667 13.5102 12.6667 13.3334V6.66669H8.66667C8.29848 6.66669 8 6.36821 8 6.00002V2.00002ZM11.6804 5.33335L9.33333 2.96921V5.33335H11.6804Z" fill="#C5B1FE"/>
</svg>
