<svg width="14" height="16" viewBox="0 0 14 16" fill="none" xmlns="http://www.w3.org/2000/svg">
<path fill-rule="evenodd" clip-rule="evenodd" d="M7.40927 0.80718C7.16853 0.619937 6.83143 0.619937 6.59069 0.80718L0.590686 5.47385C0.428295 5.60015 0.333313 5.79435 0.333313 6.00008V13.3334C0.333313 13.8638 0.544027 14.3726 0.919099 14.7476C1.29417 15.1227 1.80288 15.3334 2.33331 15.3334H4.99998H8.99998H11.6666C12.1971 15.3334 12.7058 15.1227 13.0809 14.7476C13.4559 14.3726 13.6666 13.8638 13.6666 13.3334V6.00008C13.6666 5.79435 13.5717 5.60015 13.4093 5.47385L7.40927 0.80718ZM9.66665 14.0001H11.6666C11.8435 14.0001 12.013 13.9298 12.1381 13.8048C12.2631 13.6798 12.3333 13.5102 12.3333 13.3334V6.32614L6.99998 2.17799L1.66665 6.32614V13.3334C1.66665 13.5102 1.73688 13.6798 1.86191 13.8048C1.98693 13.9298 2.1565 14.0001 2.33331 14.0001H4.33331V8.00008C4.33331 7.63189 4.63179 7.33341 4.99998 7.33341H8.99998C9.36817 7.33341 9.66665 7.63189 9.66665 8.00008V14.0001ZM5.66665 14.0001V8.66675H8.33331V14.0001H5.66665Z" fill="#B3B5B7"/>
</svg>
