<svg width="74" height="32" viewBox="0 0 74 32" fill="none" xmlns="http://www.w3.org/2000/svg">
<path d="M16.4057 6.89505C18.1496 6.89505 19.5633 5.50746 19.5633 3.79579C19.5633 2.08412 18.1496 0.696533 16.4057 0.696533C14.6619 0.696533 13.2482 2.08412 13.2482 3.79579C13.2482 5.50746 14.6619 6.89505 16.4057 6.89505Z" fill="#AA8CFF"/>
<path d="M10.1238 22.6576V10.3394C10.1238 9.10826 10.1129 7.83447 12.359 7.83447H16.3347C16.7037 7.83447 16.8816 8.01127 16.8816 8.33291V24.8133C16.8816 26.8624 16.1503 27.2757 13.3942 27.2757H3.05557C1.00695 27.2757 0 26.856 0 24.8814V18.6382H8.03607C8.28781 18.6382 8.5504 18.7703 8.5504 19.1622V22.679C8.5504 22.9324 8.70231 22.9665 8.87592 22.9665H9.78955C10.0218 22.9665 10.1259 22.926 10.1259 22.6576H10.1238Z" fill="#AA8CFF"/>
<path d="M64.7441 22.6726C64.7441 22.6726 64.7441 14.4164 64.7441 10.3565C64.7441 9.30427 64.755 7.85156 62.5089 7.85156H58.5331C58.1642 7.85156 57.9863 8.02836 57.9863 8.35C57.9863 10.8294 57.9863 20.0484 57.9863 24.8282C57.9863 26.986 58.4116 27.2906 61.4737 27.2906C62.2202 27.2906 70.8596 27.2906 71.528 27.2906C73.0406 27.2906 73.9998 26.5962 73.9998 24.922C73.9998 22.9602 73.9998 21.8483 73.9998 21.8483C73.5506 21.8483 67.1443 21.8483 67.1443 21.8483C66.5345 21.8483 66.3175 21.9718 66.3175 22.449V22.696C66.3175 22.9495 66.1656 22.9836 65.992 22.9836H65.0783C64.8461 22.9836 64.7419 22.9431 64.7419 22.6747L64.7441 22.6726Z" fill="#AA8CFF"/>
<path d="M17.7757 8.38455V25.1312C17.7757 27.1484 18.8239 27.3039 21.0201 27.3039H27.9429C29.679 27.3039 31.0158 27.3039 31.0158 24.9672V8.23545C31.0158 7.99688 30.8726 7.86907 30.6338 7.86907H25.8356C25.5275 7.86907 25.5362 7.97771 25.5362 8.33343V19.2224C25.5362 19.5248 25.4363 19.6782 25.1781 19.6782H24.0149C23.7653 19.6782 23.659 19.5589 23.659 19.2224V8.35686C23.659 8.02031 23.4723 7.86694 23.1729 7.86694H18.2792C17.8668 7.86694 17.7757 8.1119 17.7757 8.38455Z" fill="#AA8CFF"/>
<path d="M39.6081 14.7892C39.6081 14.7892 39.6081 17.6329 39.6081 17.799C39.6081 18.1121 39.7926 18.2676 40.0595 18.2676C40.1745 18.2676 41.0816 18.2676 41.0816 18.2676V19.2304C41.0816 19.6628 41.0209 19.8439 40.5282 19.8439H38.7986C38.3038 19.8439 37.9826 19.5627 37.9826 19.011V13.7881C37.9826 13.0149 38.4123 12.7976 39.007 12.7976H43.5599C43.8095 12.7976 43.9961 12.5803 43.9961 12.3332V8.85697C43.9961 8.23073 44.0178 7.81323 42.9414 7.81323H32.7157C32.0842 7.81323 31.9041 8.14339 31.9041 8.67165V24.873C31.9041 27.248 33.1432 27.248 34.7882 27.248H41.7153C42.974 27.248 44.0591 26.9945 44.0591 24.9688V14.7892C44.0591 14.557 43.9289 14.3014 43.5816 14.3014H40.0617C39.7557 14.3014 39.6103 14.5081 39.6103 14.7892H39.6081Z" fill="#AA8CFF"/>
<path d="M49.2947 14.7892C49.2947 14.7892 49.2947 17.6329 49.2947 17.799C49.2947 18.1121 49.1102 18.2676 48.8433 18.2676C48.7283 18.2676 47.8211 18.2676 47.8211 18.2676V19.2304C47.8211 19.6628 47.8819 19.8439 48.3745 19.8439H50.1041C50.5989 19.8439 50.9201 19.5627 50.9201 19.011C50.9201 16.5913 50.9201 17.3283 50.9201 13.7881C50.9201 13.0149 50.4904 12.7976 49.8958 12.7976C48.954 12.7976 46.4713 12.7976 45.3428 12.7976C45.0933 12.7976 44.9066 12.5803 44.9066 12.3332V8.85697C44.9066 8.23073 45.1019 7.81323 46.1783 7.81323H56.1871C56.8186 7.81323 56.9987 8.14339 56.9987 8.67165V24.873C56.9987 27.248 55.7596 27.248 54.1146 27.248H47.1875C45.5186 27.248 44.8437 27.2693 44.8437 24.9688V19.3305V17.88V14.7871C44.8437 14.5549 44.9739 14.2993 45.3211 14.2993H48.8411C49.1471 14.2993 49.2925 14.5059 49.2925 14.7871L49.2947 14.7892Z" fill="#AA8CFF"/>
</svg>
