<svg width="16" height="16" viewBox="0 0 16 16" fill="none" xmlns="http://www.w3.org/2000/svg">
<g clip-path="url(#clip0_9318_316727)">
<path fill-rule="evenodd" clip-rule="evenodd" d="M5.18777 2.16114C5.06511 2.05566 4.90829 1.99837 4.74652 1.99997L4.73996 2.00003L2.74037 2C2.64789 2.00011 2.55644 2.01947 2.47185 2.05684C2.38719 2.09423 2.31124 2.14885 2.24884 2.2172C2.18644 2.28556 2.13896 2.36616 2.10942 2.45387C2.08035 2.54019 2.06927 2.63153 2.07687 2.72226C2.28242 4.64536 3.13732 6.62343 4.22615 8.3042L4.22932 8.3091C5.23746 9.89562 6.20593 11.1604 7.69084 12.104L7.69604 12.1073C9.31468 13.157 11.3012 13.7341 13.2783 13.9498C13.3691 13.9573 13.4605 13.9461 13.5469 13.9169C13.6348 13.8872 13.7156 13.8394 13.784 13.7767C13.8524 13.7139 13.9069 13.6375 13.9441 13.5525C13.9541 13.5296 13.9661 13.5037 13.972 13.491C13.9734 13.4881 13.9744 13.4859 13.975 13.4845C13.9749 13.4847 13.9751 13.4843 13.975 13.4845C13.9757 13.4807 13.9767 13.4747 13.9777 13.4676C13.9897 13.3759 14 13.1736 14 12.6667L14 11.28C14 11.2745 14 11.269 14.0002 11.2635C14.0042 11.1 13.948 10.9407 13.8423 10.816C13.7371 10.6918 13.5902 10.6104 13.4292 10.5871C12.7406 10.496 12.0644 10.3275 11.4136 10.0846L11.412 10.084C11.2927 10.0392 11.1631 10.0295 11.0384 10.0561C10.9143 10.0825 10.8003 10.1439 10.7098 10.233L9.86469 11.0781C9.65248 11.2903 9.32464 11.3345 9.06376 11.1862C7.29041 10.1778 5.82211 8.70954 4.81376 6.93619C4.66542 6.67531 4.70968 6.34747 4.92188 6.13526L5.76698 5.29017C5.85603 5.19971 5.91741 5.0857 5.94389 4.96153C5.97047 4.83688 5.96077 4.70721 5.91592 4.5879L5.91536 4.5864C5.67251 3.9356 5.50393 3.25945 5.41283 2.57082C5.38971 2.4116 5.30979 2.26608 5.18777 2.16114ZM4.737 0.666664C5.22103 0.662773 5.6901 0.834559 6.05716 1.15023C6.42513 1.46668 6.66547 1.90614 6.73339 2.3867L6.73426 2.39282C6.81207 2.98277 6.95631 3.56204 7.16429 4.11957C7.29858 4.47727 7.32759 4.86595 7.2479 5.23964C7.16814 5.6136 6.98285 5.95687 6.71399 6.22876L6.71137 6.23141L6.2333 6.70946C7.0172 7.93923 8.06072 8.98275 9.29049 9.76665L9.76855 9.28859L9.7712 9.28596C10.0431 9.0171 10.3863 8.83181 10.7603 8.75206C11.134 8.67236 11.5227 8.70138 11.8804 8.83566C12.4379 9.04364 13.0172 9.18791 13.6071 9.26572L13.6131 9.26651C14.0989 9.33504 14.5425 9.57974 14.8596 9.95403C15.1748 10.326 15.3432 10.8002 15.3333 11.2875L15.3333 12.6667C15.3333 13.1597 15.3249 13.4488 15.2997 13.641C15.2705 13.8637 15.2094 13.9936 15.1777 14.0608C15.173 14.0708 15.169 14.0793 15.1658 14.0866C15.0542 14.3418 14.8906 14.5709 14.6854 14.7592C14.4801 14.9474 14.2379 15.0908 13.974 15.18C13.7102 15.2692 13.4307 15.3024 13.1533 15.2773L13.1413 15.2761C11.0188 15.0455 8.81472 14.4212 6.97312 13.2277C5.23886 12.1249 4.14349 10.6599 3.1055 9.02665C1.94282 7.23124 0.98348 5.0524 0.75035 2.85706L0.749328 2.84666C0.724338 2.57013 0.757203 2.29142 0.845828 2.02829C0.934453 1.76515 1.0769 1.52335 1.26409 1.31829C1.45129 1.11322 1.67913 0.949374 1.93312 0.837186C2.1871 0.724999 2.46167 0.666926 2.73933 0.666664L4.737 0.666664Z" fill="#C5B1FE"/>
</g>
<defs>
<clipPath id="clip0_9318_316727">
<rect width="16" height="16" fill="white"/>
</clipPath>
</defs>
</svg>
