<svg width="16" height="16" viewBox="0 0 16 16" fill="none" xmlns="http://www.w3.org/2000/svg">
<path fill-rule="evenodd" clip-rule="evenodd" d="M8.47136 2.86195C8.21101 2.6016 7.7889 2.6016 7.52855 2.86195C7.26821 3.1223 7.26821 3.54441 7.52855 3.80476L11.0571 7.33335H3.33329C2.9651 7.33335 2.66663 7.63183 2.66663 8.00002C2.66663 8.36821 2.9651 8.66669 3.33329 8.66669H11.0571L7.52855 12.1953C7.26821 12.4556 7.26821 12.8777 7.52855 13.1381C7.7889 13.3984 8.21101 13.3984 8.47136 13.1381L13.1376 8.4719C13.1392 8.47029 13.1408 8.46868 13.1424 8.46705C13.26 8.34721 13.3328 8.18311 13.3333 8.00202C13.3333 8.00135 13.3333 8.00069 13.3333 8.00002C13.3333 7.99935 13.3333 7.99869 13.3333 7.99802C13.333 7.90836 13.3151 7.82286 13.2827 7.74483C13.2509 7.66799 13.2041 7.59588 13.1424 7.53299C13.1408 7.53139 13.1392 7.52979 13.1376 7.52821M8.47136 2.86195L13.1376 7.52821L8.47136 2.86195Z" fill="#C5B1FE"/>
</svg>
