<svg width="16" height="14" viewBox="0 0 16 14" fill="none" xmlns="http://www.w3.org/2000/svg">
<path fill-rule="evenodd" clip-rule="evenodd" d="M2.66669 1.66659C2.48988 1.66659 2.32031 1.73682 2.19528 1.86185C2.07026 1.98687 2.00002 2.15644 2.00002 2.33325V11.6666C2.00002 11.8434 2.07026 12.013 2.19528 12.138C2.32031 12.263 2.48988 12.3333 2.66669 12.3333H13.3334C13.5102 12.3333 13.6797 12.263 13.8048 12.138C13.9298 12.013 14 11.8434 14 11.6666V4.33325C14 4.15644 13.9298 3.98687 13.8048 3.86185C13.6797 3.73682 13.5102 3.66659 13.3334 3.66659H7.33335C7.11045 3.66659 6.9023 3.55518 6.77865 3.36972L5.64323 1.66659H2.66669ZM1.25247 0.919038C1.62755 0.543966 2.13625 0.333252 2.66669 0.333252H6.00002C6.22292 0.333252 6.43108 0.444653 6.55472 0.630118L7.69014 2.33325H13.3334C13.8638 2.33325 14.3725 2.54397 14.7476 2.91904C15.1226 3.29411 15.3334 3.80282 15.3334 4.33325V11.6666C15.3334 12.197 15.1226 12.7057 14.7476 13.0808C14.3725 13.4559 13.8638 13.6666 13.3334 13.6666H2.66669C2.13625 13.6666 1.62755 13.4559 1.25247 13.0808C0.877401 12.7057 0.666687 12.197 0.666687 11.6666V2.33325C0.666687 1.80282 0.877401 1.29411 1.25247 0.919038Z" fill="#B3B5B7"/>
</svg>
