<svg width="12" height="16" viewBox="0 0 12 16" fill="none" xmlns="http://www.w3.org/2000/svg">
<path fill-rule="evenodd" clip-rule="evenodd" d="M4 0.666748C3.26362 0.666748 2.66667 1.2637 2.66667 2.00008H2C1.46957 2.00008 0.960859 2.21079 0.585786 2.58587C0.210714 2.96094 0 3.46965 0 4.00008V13.3334C0 13.8638 0.210714 14.3726 0.585786 14.7476C0.960859 15.1227 1.46957 15.3334 2 15.3334H10C10.5304 15.3334 11.0391 15.1227 11.4142 14.7476C11.7893 14.3726 12 13.8638 12 13.3334V4.00008C12 3.46965 11.7893 2.96094 11.4142 2.58587C11.0391 2.21079 10.5304 2.00008 10 2.00008H9.33333C9.33333 1.2637 8.73638 0.666748 8 0.666748H4ZM9.33333 3.33341C9.33333 4.06979 8.73638 4.66675 8 4.66675H4C3.26362 4.66675 2.66667 4.06979 2.66667 3.33341H2C1.82319 3.33341 1.65362 3.40365 1.5286 3.52868C1.40357 3.6537 1.33333 3.82327 1.33333 4.00008V13.3334C1.33333 13.5102 1.40357 13.6798 1.5286 13.8048C1.65362 13.9298 1.82319 14.0001 2 14.0001H10C10.1768 14.0001 10.3464 13.9298 10.4714 13.8048C10.5964 13.6798 10.6667 13.5102 10.6667 13.3334V4.00008C10.6667 3.82327 10.5964 3.6537 10.4714 3.52868C10.3464 3.40365 10.1768 3.33341 10 3.33341H9.33333ZM4 2.66675V3.33341H8V2.66675V2.00008H4V2.66675Z" fill="#B3B5B7"/>
</svg>
