<svg width="16" height="16" viewBox="0 0 16 16" fill="none" xmlns="http://www.w3.org/2000/svg">
<path fill-rule="evenodd" clip-rule="evenodd" d="M2.00002 8.00008C2.00002 4.68637 4.68631 2.00008 8.00002 2.00008C11.3137 2.00008 14 4.68637 14 8.00008C14 11.3138 11.3137 14.0001 8.00002 14.0001C4.68631 14.0001 2.00002 11.3138 2.00002 8.00008ZM8.00002 0.666748C3.94993 0.666748 0.666687 3.94999 0.666687 8.00008C0.666687 12.0502 3.94993 15.3334 8.00002 15.3334C12.0501 15.3334 15.3334 12.0502 15.3334 8.00008C15.3334 3.94999 12.0501 0.666748 8.00002 0.666748ZM8.66669 4.00008C8.66669 3.63189 8.36821 3.33341 8.00002 3.33341C7.63183 3.33341 7.33335 3.63189 7.33335 4.00008V8.00008C7.33335 8.2526 7.47602 8.48344 7.70188 8.59637L10.3685 9.9297C10.6979 10.0944 11.0983 9.96088 11.263 9.63156C11.4276 9.30224 11.2941 8.90179 10.9648 8.73713L8.66669 7.58806V4.00008Z" fill="#B3B5B7"/>
</svg>
