<svg width="14" height="14" viewBox="0 0 14 14" fill="none" xmlns="http://www.w3.org/2000/svg">
<path fill-rule="evenodd" clip-rule="evenodd" d="M1.66659 6.33331C1.66659 3.75598 3.75592 1.66665 6.33325 1.66665C8.91058 1.66665 10.9999 3.75598 10.9999 6.33331C10.9999 7.59063 10.5027 8.73182 9.69413 9.57096C9.67134 9.58849 9.64941 9.60769 9.62853 9.62858C9.60765 9.64946 9.58844 9.67138 9.57091 9.69418C8.73177 10.5027 7.59058 11 6.33325 11C3.75592 11 1.66659 8.91064 1.66659 6.33331ZM10.0784 11.0212C9.05194 11.8423 7.74993 12.3333 6.33325 12.3333C3.01954 12.3333 0.333252 9.64702 0.333252 6.33331C0.333252 3.0196 3.01954 0.333313 6.33325 0.333313C9.64696 0.333313 12.3333 3.0196 12.3333 6.33331C12.3333 7.74998 11.8423 9.05198 11.0212 10.0784L13.4713 12.5286C13.7317 12.7889 13.7317 13.211 13.4713 13.4714C13.211 13.7317 12.7889 13.7317 12.5285 13.4714L10.0784 11.0212Z" fill="#C5B1FE"/>
</svg>
