<svg width="16" height="16" viewBox="0 0 16 16" fill="none" xmlns="http://www.w3.org/2000/svg">
<path fill-rule="evenodd" clip-rule="evenodd" d="M6 0.666687C5.26362 0.666687 4.66667 1.26364 4.66667 2.00002H4C3.46957 2.00002 2.96086 2.21073 2.58579 2.58581C2.21071 2.96088 2 3.46959 2 4.00002V13.3334C2 13.8638 2.21071 14.3725 2.58579 14.7476C2.96086 15.1226 3.46957 15.3334 4 15.3334H12C12.5304 15.3334 13.0391 15.1226 13.4142 14.7476C13.7893 14.3725 14 13.8638 14 13.3334V4.00002C14 3.46959 13.7893 2.96088 13.4142 2.58581C13.0391 2.21073 12.5304 2.00002 12 2.00002H11.3333C11.3333 1.26364 10.7364 0.666687 10 0.666687H6ZM11.3333 3.33335C11.3333 4.06973 10.7364 4.66669 10 4.66669H6C5.26362 4.66669 4.66667 4.06973 4.66667 3.33335H4C3.82319 3.33335 3.65362 3.40359 3.5286 3.52862C3.40357 3.65364 3.33333 3.82321 3.33333 4.00002V13.3334C3.33333 13.5102 3.40357 13.6797 3.5286 13.8048C3.65362 13.9298 3.82319 14 4 14H12C12.1768 14 12.3464 13.9298 12.4714 13.8048C12.5964 13.6797 12.6667 13.5102 12.6667 13.3334V4.00002C12.6667 3.82321 12.5964 3.65364 12.4714 3.52862C12.3464 3.40359 12.1768 3.33335 12 3.33335H11.3333ZM6 2.66669V3.33335H10V2.66669V2.00002H6V2.66669Z" fill="#C5B1FE"/>
</svg>
