<svg width="16" height="16" viewBox="0 0 16 16" fill="none" xmlns="http://www.w3.org/2000/svg">
<path fill-rule="evenodd" clip-rule="evenodd" d="M7.99997 0.666748C6.76229 0.666748 5.57531 1.15841 4.70014 2.03358C3.82497 2.90875 3.3333 4.09574 3.3333 5.33341C3.3333 7.56852 2.85526 8.9565 2.41471 9.76418C2.19351 10.1697 1.97812 10.4357 1.8285 10.5937C1.75352 10.6728 1.6946 10.7253 1.65912 10.7549C1.64137 10.7697 1.62947 10.7787 1.62434 10.7825L1.62243 10.784C1.38344 10.9481 1.27768 11.2484 1.36191 11.5266C1.44704 11.8078 1.70619 12.0001 1.99997 12.0001H14C14.2937 12.0001 14.5529 11.8078 14.638 11.5266C14.7223 11.2484 14.6165 10.9481 14.3775 10.7839L14.3756 10.7825C14.3705 10.7787 14.3586 10.7697 14.3408 10.7549C14.3053 10.7253 14.2464 10.6728 14.1714 10.5937C14.0218 10.4357 13.8064 10.1697 13.5852 9.76418C13.1447 8.9565 12.6666 7.56852 12.6666 5.33341C12.6666 4.09574 12.175 2.90875 11.2998 2.03358C10.4246 1.15841 9.23765 0.666748 7.99997 0.666748ZM12.4147 10.4026C12.4654 10.4957 12.5164 10.5836 12.5671 10.6667H3.43285C3.48358 10.5836 3.5345 10.4957 3.58523 10.4026C4.14468 9.37699 4.66664 7.76497 4.66664 5.33341C4.66664 4.44936 5.01783 3.60151 5.64295 2.97639C6.26807 2.35127 7.11592 2.00008 7.99997 2.00008C8.88403 2.00008 9.73187 2.35127 10.357 2.97639C10.9821 3.60151 11.3333 4.44936 11.3333 5.33341C11.3333 7.76497 11.8553 9.37699 12.4147 10.4026ZM7.42331 13.6656C7.23856 13.3471 6.83061 13.2387 6.51213 13.4234C6.19364 13.6082 6.08523 14.0161 6.26997 14.3346C6.44578 14.6377 6.69813 14.8892 7.00175 15.0641C7.30536 15.239 7.64959 15.3311 7.99997 15.3311C8.35035 15.3311 8.69458 15.239 8.9982 15.0641C9.30182 14.8892 9.55416 14.6377 9.72997 14.3346C9.91472 14.0161 9.8063 13.6082 9.48782 13.4234C9.16934 13.2387 8.76139 13.3471 8.57664 13.6656C8.51804 13.7666 8.43392 13.8505 8.33272 13.9087C8.23151 13.967 8.11677 13.9977 7.99997 13.9977C7.88318 13.9977 7.76844 13.967 7.66723 13.9087C7.56603 13.8505 7.48191 13.7666 7.42331 13.6656Z" fill="#C5B1FE"/>
</svg>
