<svg width="8" height="10" viewBox="0 0 8 10" fill="none" xmlns="http://www.w3.org/2000/svg">
<path fill-rule="evenodd" clip-rule="evenodd" d="M4.4714 0.528575C4.21106 0.268226 3.78894 0.268226 3.5286 0.528575L0.195262 3.86191C-0.0650874 4.12226 -0.0650874 4.54437 0.195262 4.80472C0.455612 5.06507 0.877722 5.06507 1.13807 4.80472L4 1.94279L6.86193 4.80472C7.12228 5.06507 7.54439 5.06507 7.80474 4.80472C8.06509 4.54437 8.06509 4.12226 7.80474 3.86191L4.4714 0.528575ZM7.80474 8.52858L4.4714 5.19524C4.21106 4.93489 3.78894 4.93489 3.5286 5.19524L0.195262 8.52858C-0.0650874 8.78893 -0.0650874 9.21103 0.195262 9.47138C0.455612 9.73173 0.877722 9.73173 1.13807 9.47138L4 6.60946L6.86193 9.47138C7.12228 9.73173 7.54439 9.73173 7.80474 9.47138C8.06509 9.21103 8.06509 8.78893 7.80474 8.52858Z" fill="#C5B1FE"/>
</svg>
