<svg width="16" height="15" viewBox="0 0 16 15" fill="none" xmlns="http://www.w3.org/2000/svg">
<path fill-rule="evenodd" clip-rule="evenodd" d="M7.99998 0.666748C8.25373 0.666748 8.48547 0.810796 8.59778 1.03833L10.5028 4.89773L14.7631 5.52042C15.0141 5.55712 15.2226 5.73312 15.3008 5.97446C15.3791 6.2158 15.3135 6.48063 15.1318 6.65765L12.0497 9.65966L12.7771 13.9007C12.82 14.1508 12.7171 14.4036 12.5118 14.5528C12.3065 14.7019 12.0343 14.7216 11.8097 14.6035L7.99998 12.6L4.19028 14.6035C3.96567 14.7216 3.69347 14.7019 3.48816 14.5528C3.28284 14.4036 3.18001 14.1508 3.22291 13.9007L3.9503 9.65966L0.868157 6.65765C0.686411 6.48063 0.620896 6.2158 0.699148 5.97446C0.7774 5.73312 0.985853 5.55712 1.23689 5.52042L5.49714 4.89773L7.40217 1.03833C7.51449 0.810796 7.74623 0.666748 7.99998 0.666748ZM7.99998 2.83958L6.53778 5.80183C6.44076 5.9984 6.2533 6.1347 6.0364 6.16641L2.76559 6.64448L5.1318 8.94918C5.28905 9.10234 5.36083 9.32309 5.32372 9.53944L4.76543 12.7945L7.68968 11.2567C7.88393 11.1545 8.11602 11.1545 8.31028 11.2567L11.2345 12.7945L10.6762 9.53944C10.6391 9.32309 10.7109 9.10234 10.8682 8.94918L13.2344 6.64448L9.96356 6.16641C9.74666 6.1347 9.5592 5.9984 9.46217 5.80183L7.99998 2.83958Z" fill="#B3B5B7"/>
</svg>
